<?xml version="1.0" encoding="UTF-8"?>
<svg xmlns="http://www.w3.org/2000/svg" xmlns:xlink="http://www.w3.org/1999/xlink" width="1829" height="1758" viewBox="0 0 1829 1758">
<path fill-rule="nonzero" fill="rgb(0%, 0%, 0%)" fill-opacity="1" d="M 703.125 1722.65625 L 703.125 1687.5 L 632.8125 1687.5 L 632.8125 1617.1875 L 492.1875 1617.1875 L 492.1875 1546.875 L 421.875 1546.875 L 421.875 1476.5625 L 351.5625 1476.5625 L 351.5625 1335.9375 L 281.25 1335.9375 L 281.25 1265.625 L 210.9375 1265.625 L 210.9375 1195.3125 L 140.625 1195.3125 L 140.625 1054.6875 L 70.3125 1054.6875 L 70.3125 843.75 L 0 843.75 L 0 351.558594 L 70.3125 351.558594 L 70.3125 210.941406 L 140.625 210.941406 L 140.625 140.621094 L 210.9375 140.621094 L 210.9375 70.308594 L 351.5625 70.308594 L 351.5625 0 L 632.8125 0 L 632.8125 70.308594 L 773.4375 70.308594 L 773.4375 140.621094 L 843.75 140.621094 L 843.75 210.941406 L 984.375 210.941406 L 984.375 140.621094 L 1054.691406 140.621094 L 1054.691406 70.308594 L 1195.308594 70.308594 L 1195.308594 0 L 1546.878906 0 L 1546.878906 70.308594 L 1687.5 70.308594 L 1687.5 140.621094 L 1757.808594 140.621094 L 1757.808594 281.25 L 1828.128906 281.25 L 1828.128906 773.4375 L 1757.808594 773.4375 L 1757.808594 984.375 L 1687.5 984.375 L 1687.5 1125 L 1617.191406 1125 L 1617.191406 1195.3125 L 1546.878906 1195.3125 L 1546.878906 1265.625 L 1476.558594 1265.625 L 1476.558594 1335.9375 L 1406.25 1335.9375 L 1406.25 1406.25 L 1335.941406 1406.25 L 1335.941406 1476.5625 L 1265.628906 1476.5625 L 1265.628906 1546.875 L 1125 1546.875 L 1125 1617.1875 L 1054.691406 1617.1875 L 1054.691406 1687.5 L 984.375 1687.5 L 984.375 1757.8125 L 703.125 1757.8125 Z M 1265.628906 1230.46875 L 1265.628906 1195.3125 L 1195.308594 1195.3125 L 1195.308594 1265.625 L 1265.628906 1265.625 Z M 1406.25 1089.84375 L 1406.25 1054.6875 L 1476.558594 1054.6875 L 1476.558594 984.375 L 1546.878906 984.375 L 1546.878906 914.0625 L 1617.191406 914.0625 L 1617.191406 843.75 L 1687.5 843.75 L 1687.5 351.558594 L 1617.191406 351.558594 L 1617.191406 843.75 L 1546.878906 843.75 L 1546.878906 914.0625 L 1476.558594 914.0625 L 1476.558594 984.375 L 1406.25 984.375 L 1406.25 1054.6875 L 1335.941406 1054.6875 L 1335.941406 1125 L 1406.25 1125 Z M 1406.25 1089.84375 "/>
</svg>
